<?xml version="1.0" encoding="iso-8859-1"?>
<!-- Uploaded to: SVG Repo, www.svgrepo.com, Generator: SVG Repo Mixer Tools -->
<svg fill="currentColor" height="800px" width="800px" version="1.1" id="Layer_1" xmlns="http://www.w3.org/2000/svg"
	xmlns:xlink="http://www.w3.org/1999/xlink" viewBox="0 0 511.999 511.999" xml:space="preserve">
	<g>
		<g>
			<g>
				<path d="M508.875,177.005L395.352,63.483c-0.009-0.008-0.013-0.015-0.021-0.022c-0.006-0.008-0.015-0.013-0.021-0.02
				L334.992,3.125c-4.166-4.166-10.918-4.166-15.086,0L259.601,63.43c-0.013,0.012-0.025,0.02-0.035,0.031
				c-0.013,0.012-0.021,0.023-0.031,0.034L63.467,259.562c-0.002,0.001-0.002,0.002-0.004,0.003c0,0.001-0.002,0.002-0.002,0.003
				L3.124,319.905c-4.164,4.165-4.164,10.919,0,15.086l155.669,155.67h-9.462c-5.889,0-10.667,4.777-10.667,10.667
				c0,5.89,4.775,10.667,10.667,10.667l35.134,0.001c0.029,0,0.059,0.004,0.087,0.004s0.059-0.004,0.087-0.004l178.023,0.004
				c5.891,0,10.667-4.775,10.667-10.667c0-5.89-4.775-10.667-10.667-10.667l-152.355-0.004l238.222-238.225
				c0.002-0.001,0.004-0.003,0.004-0.004c0.002-0.001,0.004-0.003,0.004-0.005l60.337-60.336
				C513.04,187.926,513.04,181.171,508.875,177.005z M327.449,25.752l44.717,44.716c-12.839,9.643-28.375,14.865-44.717,14.865
				c-16.341,0-31.877-5.222-44.717-14.866L327.449,25.752z M184.552,486.247l-44.708-44.708c26.404-19.769,63.01-19.769,89.417,0
				L184.552,486.247z M441.532,229.266c-9.073-12.112-14.267-26.703-14.818-42.035c-0.21-5.888-5.2-10.506-11.044-10.276
				c-5.888,0.211-10.487,5.155-10.275,11.043c0.746,20.749,8.121,40.43,20.946,56.459L244.462,426.337
				c-5.81-4.649-12.04-8.522-18.55-11.622l10.24-10.241c4.166-4.165,4.166-10.918,0-15.085c-4.164-4.166-10.921-4.165-15.086,0.001
				l-17.817,17.818c-27.073-5.336-56.007,1.045-78.61,19.128l-98.886-98.887l44.715-44.716c9.073,12.11,14.267,26.702,14.818,42.037
				c0.206,5.756,4.938,10.284,10.652,10.284c0.129,0,0.26-0.002,0.389-0.008c5.888-0.211,10.49-5.155,10.277-11.043
				c-0.746-20.751-8.121-40.433-20.946-56.462L267.536,85.664c5.753,4.613,11.954,8.521,18.509,11.659l-10.201,10.2
				c-4.164,4.165-4.164,10.919,0,15.086c2.083,2.082,4.813,3.124,7.543,3.124c2.73,0,5.458-1.042,7.541-3.124l17.764-17.763
				c6.112,1.203,12.387,1.822,18.755,1.822c22.05,0,42.955-7.403,59.913-21.003l98.884,98.885L441.532,229.266z" />
				<path d="M94.827,345.138c-5.569-1.914-11.64,1.041-13.561,6.611c-0.512,1.492-1.084,2.99-1.692,4.448
				c-2.267,5.438,0.302,11.683,5.74,13.951c1.342,0.56,2.734,0.826,4.102,0.826c4.175,0,8.14-2.469,9.848-6.563
				c0.781-1.873,1.513-3.795,2.173-5.712C103.357,353.128,100.397,347.057,94.827,345.138z" />
				<path d="M305.405,206.592c-16.473-16.471-38.3-25.92-59.888-25.92c-17.946,0-34.404,6.572-46.339,18.507
				c-13.432,13.433-19.917,32.058-18.258,52.444c1.606,19.734,10.723,38.834,25.673,53.783
				c16.47,16.474,38.298,25.922,59.886,25.922c17.948,0,34.404-6.573,46.339-18.507c13.434-13.433,19.917-32.058,18.258-52.444
				C329.473,240.643,320.356,221.541,305.405,206.592z M297.735,297.734c-7.906,7.905-19.008,12.259-31.257,12.259
				c-15.971,0-32.3-7.171-44.802-19.673c-11.375-11.375-18.298-25.732-19.492-40.428c-1.143-14.043,3.148-26.696,12.079-35.628
				c7.906-7.905,19.006-12.258,31.255-12.258c15.971,0,32.3,7.17,44.802,19.672c11.375,11.374,18.298,25.732,19.493,40.427
				C310.956,276.149,306.666,288.802,297.735,297.734z" />
				<path d="M256.235,152.884c2.732,0,5.46-1.042,7.544-3.124l4.525-4.525c4.164-4.165,4.164-10.919,0-15.086
				c-4.166-4.164-10.918-4.164-15.086,0l-4.525,4.525c-4.166,4.165-4.166,10.919,0,15.086
				C250.777,151.843,253.505,152.884,256.235,152.884z" />
				<path d="M248.222,362.235l-4.527,4.527c-4.166,4.165-4.166,10.92,0,15.086c2.083,2.082,4.813,3.124,7.541,3.124
				c2.732,0,5.46-1.042,7.544-3.124l4.527-4.527c4.164-4.165,4.164-10.919,0-15.086
				C259.141,358.069,252.389,358.069,248.222,362.235z" />
				<path d="M417.171,166.858c1.15,0.396,2.323,0.585,3.475,0.585c4.425,0,8.562-2.776,10.085-7.196
				c0.516-1.503,1.086-2.996,1.69-4.44c2.271-5.436-0.291-11.683-5.727-13.956c-5.434-2.269-11.685,0.291-13.956,5.727
				c-0.779,1.862-1.51,3.788-2.177,5.721C408.642,158.868,411.602,164.939,417.171,166.858z" />
				<circle cx="168.885" cy="343.116" r="21.332" />
				<circle cx="343.115" cy="168.886" r="21.333" />
			</g>
		</g>
	</g>
</svg>